<svg width="32" height="32" viewBox="0 0 32 32" fill="none" xmlns="http://www.w3.org/2000/svg">
<path d="M20.5592 24.4539C20.6576 24.6047 20.7134 24.7794 20.7207 24.9594C20.7281 25.1394 20.6866 25.318 20.6009 25.4764C20.5151 25.6348 20.3881 25.767 20.2333 25.8592C20.0786 25.9514 19.9018 26.0001 19.7217 26.0001H1.27917C1.09904 26.0001 0.922265 25.9514 0.767512 25.8592C0.61276 25.767 0.485782 25.6348 0.399993 25.4764C0.314204 25.318 0.27279 25.1394 0.280127 24.9594C0.287464 24.7794 0.343279 24.6047 0.441675 24.4539C1.84931 22.2872 3.91979 20.6337 6.34417 19.7401C5.00392 18.8479 3.98639 17.548 3.44205 16.0327C2.8977 14.5174 2.85545 12.8671 3.32154 11.326C3.78762 9.78483 4.7373 8.43458 6.03014 7.4749C7.32298 6.51522 8.89033 5.99707 10.5004 5.99707C12.1105 5.99707 13.6779 6.51522 14.9707 7.4749C16.2635 8.43458 17.2132 9.78483 17.6793 11.326C18.1454 12.8671 18.1031 14.5174 17.5588 16.0327C17.0145 17.548 15.9969 18.8479 14.6567 19.7401C17.0811 20.6337 19.1515 22.2872 20.5592 24.4539ZM31.5479 24.4351C30.1399 22.2775 28.0741 20.6311 25.6567 19.7401C27.2389 18.6743 28.3555 17.0456 28.7792 15.1855C29.203 13.3255 28.9019 11.3738 27.9374 9.7279C26.9729 8.08195 25.4175 6.86541 23.5876 6.3259C21.7578 5.78639 19.7911 5.96446 18.0879 6.82386C18.0228 6.85749 17.9659 6.90502 17.9211 6.9631C17.8764 7.02118 17.845 7.08837 17.8292 7.15993C17.8133 7.23149 17.8134 7.30566 17.8294 7.37719C17.8453 7.44872 17.8769 7.51587 17.9217 7.57386C19.1881 9.15363 19.9155 11.0974 19.9971 13.1205C20.0788 15.1436 19.5105 17.1397 18.3754 18.8164C18.3021 18.9259 18.275 19.0601 18.3 19.1895C18.3251 19.319 18.4002 19.4333 18.5092 19.5076C19.9891 20.5404 21.256 21.8489 22.2404 23.3614C22.6375 23.9694 22.7997 24.7012 22.6967 25.4201C22.6851 25.4916 22.6892 25.5648 22.7087 25.6346C22.7281 25.7044 22.7625 25.7691 22.8095 25.8242C22.8565 25.8794 22.9149 25.9237 22.9806 25.9541C23.0464 25.9844 23.118 26.0001 23.1904 26.0001H30.7279C30.9481 26.0002 31.1622 25.9276 31.3369 25.7935C31.5116 25.6595 31.6372 25.4716 31.6942 25.2589C31.7289 25.119 31.7339 24.9733 31.7087 24.8314C31.6835 24.6895 31.6287 24.5545 31.5479 24.4351Z" fill="#3F3F3F"/>
</svg>
