<svg width="232" height="40" viewBox="0 0 232 40" fill="none" xmlns="http://www.w3.org/2000/svg">
<path d="M15.2541 9.0135C17.3658 5.22683 18.4208 3.3335 19.9991 3.3335C21.5774 3.3335 22.6324 5.22683 24.7441 9.0135L25.2908 9.9935C25.8908 11.0702 26.1908 11.6085 26.6574 11.9635C27.1241 12.3185 27.7074 12.4502 28.8741 12.7135L29.9341 12.9535C34.0341 13.8818 36.0824 14.3452 36.5708 15.9135C37.0574 17.4802 35.6608 19.1152 32.8658 22.3835L32.1424 23.2285C31.3491 24.1568 30.9508 24.6218 30.7724 25.1952C30.5941 25.7702 30.6541 26.3902 30.7741 27.6285L30.8841 28.7568C31.3058 33.1185 31.5174 35.2985 30.2408 36.2668C28.9641 37.2352 27.0441 36.3518 23.2074 34.5852L22.2124 34.1285C21.1224 33.6252 20.5774 33.3752 19.9991 33.3752C19.4208 33.3752 18.8758 33.6252 17.7858 34.1285L16.7924 34.5852C12.9541 36.3518 11.0341 37.2352 9.75909 36.2685C8.48076 35.2985 8.69242 33.1185 9.11409 28.7568L9.22409 27.6302C9.34409 26.3902 9.40409 25.7702 9.22409 25.1968C9.04742 24.6218 8.64909 24.1568 7.85576 23.2302L7.13242 22.3835C4.33742 19.1168 2.94076 17.4818 3.42742 15.9135C3.91409 14.3452 5.96576 13.8802 10.0658 12.9535L11.1258 12.7135C12.2908 12.4502 12.8724 12.3185 13.3408 11.9635C13.8091 11.6085 14.1074 11.0702 14.7074 9.9935L15.2541 9.0135Z" fill="white"/>
<path d="M63.2541 9.0135C65.3658 5.22683 66.4208 3.3335 67.9991 3.3335C69.5774 3.3335 70.6324 5.22683 72.7441 9.0135L73.2908 9.9935C73.8908 11.0702 74.1908 11.6085 74.6574 11.9635C75.1241 12.3185 75.7074 12.4502 76.8741 12.7135L77.9341 12.9535C82.0341 13.8818 84.0824 14.3452 84.5708 15.9135C85.0574 17.4802 83.6608 19.1152 80.8658 22.3835L80.1424 23.2285C79.3491 24.1568 78.9508 24.6218 78.7724 25.1952C78.5941 25.7702 78.6541 26.3902 78.7741 27.6285L78.8841 28.7568C79.3058 33.1185 79.5174 35.2985 78.2408 36.2668C76.9641 37.2352 75.0441 36.3518 71.2074 34.5852L70.2124 34.1285C69.1224 33.6252 68.5774 33.3752 67.9991 33.3752C67.4208 33.3752 66.8758 33.6252 65.7858 34.1285L64.7924 34.5852C60.9541 36.3518 59.0341 37.2352 57.7591 36.2685C56.4808 35.2985 56.6924 33.1185 57.1141 28.7568L57.2241 27.6302C57.3441 26.3902 57.4041 25.7702 57.2241 25.1968C57.0474 24.6218 56.6491 24.1568 55.8558 23.2302L55.1324 22.3835C52.3374 19.1168 50.9408 17.4818 51.4274 15.9135C51.9141 14.3452 53.9658 13.8802 58.0658 12.9535L59.1258 12.7135C60.2908 12.4502 60.8724 12.3185 61.3408 11.9635C61.8091 11.6085 62.1074 11.0702 62.7074 9.9935L63.2541 9.0135Z" fill="white"/>
<path d="M111.254 9.0135C113.366 5.22683 114.421 3.3335 115.999 3.3335C117.577 3.3335 118.632 5.22683 120.744 9.0135L121.291 9.9935C121.891 11.0702 122.191 11.6085 122.657 11.9635C123.124 12.3185 123.707 12.4502 124.874 12.7135L125.934 12.9535C130.034 13.8818 132.082 14.3452 132.571 15.9135C133.057 17.4802 131.661 19.1152 128.866 22.3835L128.142 23.2285C127.349 24.1568 126.951 24.6218 126.772 25.1952C126.594 25.7702 126.654 26.3902 126.774 27.6285L126.884 28.7568C127.306 33.1185 127.517 35.2985 126.241 36.2668C124.964 37.2352 123.044 36.3518 119.207 34.5852L118.212 34.1285C117.122 33.6252 116.577 33.3752 115.999 33.3752C115.421 33.3752 114.876 33.6252 113.786 34.1285L112.792 34.5852C108.954 36.3518 107.034 37.2352 105.759 36.2685C104.481 35.2985 104.692 33.1185 105.114 28.7568L105.224 27.6302C105.344 26.3902 105.404 25.7702 105.224 25.1968C105.047 24.6218 104.649 24.1568 103.856 23.2302L103.132 22.3835C100.337 19.1168 98.9408 17.4818 99.4274 15.9135C99.9141 14.3452 101.966 13.8802 106.066 12.9535L107.126 12.7135C108.291 12.4502 108.872 12.3185 109.341 11.9635C109.809 11.6085 110.107 11.0702 110.707 9.9935L111.254 9.0135Z" fill="white"/>
<path d="M159.254 9.0135C161.366 5.22683 162.421 3.3335 163.999 3.3335C165.577 3.3335 166.632 5.22683 168.744 9.0135L169.291 9.9935C169.891 11.0702 170.191 11.6085 170.657 11.9635C171.124 12.3185 171.707 12.4502 172.874 12.7135L173.934 12.9535C178.034 13.8818 180.082 14.3452 180.571 15.9135C181.057 17.4802 179.661 19.1152 176.866 22.3835L176.142 23.2285C175.349 24.1568 174.951 24.6218 174.772 25.1952C174.594 25.7702 174.654 26.3902 174.774 27.6285L174.884 28.7568C175.306 33.1185 175.517 35.2985 174.241 36.2668C172.964 37.2352 171.044 36.3518 167.207 34.5852L166.212 34.1285C165.122 33.6252 164.577 33.3752 163.999 33.3752C163.421 33.3752 162.876 33.6252 161.786 34.1285L160.792 34.5852C156.954 36.3518 155.034 37.2352 153.759 36.2685C152.481 35.2985 152.692 33.1185 153.114 28.7568L153.224 27.6302C153.344 26.3902 153.404 25.7702 153.224 25.1968C153.047 24.6218 152.649 24.1568 151.856 23.2302L151.132 22.3835C148.337 19.1168 146.941 17.4818 147.427 15.9135C147.914 14.3452 149.966 13.8802 154.066 12.9535L155.126 12.7135C156.291 12.4502 156.872 12.3185 157.341 11.9635C157.809 11.6085 158.107 11.0702 158.707 9.9935L159.254 9.0135Z" fill="white"/>
<path d="M207.254 9.0135C209.366 5.22683 210.421 3.3335 211.999 3.3335C213.577 3.3335 214.632 5.22683 216.744 9.0135L217.291 9.9935C217.891 11.0702 218.191 11.6085 218.657 11.9635C219.124 12.3185 219.707 12.4502 220.874 12.7135L221.934 12.9535C226.034 13.8818 228.082 14.3452 228.571 15.9135C229.057 17.4802 227.661 19.1152 224.866 22.3835L224.142 23.2285C223.349 24.1568 222.951 24.6218 222.772 25.1952C222.594 25.7702 222.654 26.3902 222.774 27.6285L222.884 28.7568C223.306 33.1185 223.517 35.2985 222.241 36.2668C220.964 37.2352 219.044 36.3518 215.207 34.5852L214.212 34.1285C213.122 33.6252 212.577 33.3752 211.999 33.3752C211.421 33.3752 210.876 33.6252 209.786 34.1285L208.792 34.5852C204.954 36.3518 203.034 37.2352 201.759 36.2685C200.481 35.2985 200.692 33.1185 201.114 28.7568L201.224 27.6302C201.344 26.3902 201.404 25.7702 201.224 25.1968C201.047 24.6218 200.649 24.1568 199.856 23.2302L199.132 22.3835C196.337 19.1168 194.941 17.4818 195.427 15.9135C195.914 14.3452 197.966 13.8802 202.066 12.9535L203.126 12.7135C204.291 12.4502 204.872 12.3185 205.341 11.9635C205.809 11.6085 206.107 11.0702 206.707 9.9935L207.254 9.0135Z" fill="white"/>
<path d="M207.254 9.0135C209.366 5.22683 210.421 3.3335 211.999 3.3335C213.577 3.3335 214.632 5.22683 216.744 9.0135L217.291 9.9935C217.891 11.0702 218.191 11.6085 218.657 11.9635C219.124 12.3185 219.707 12.4502 220.874 12.7135L221.934 12.9535C226.034 13.8818 228.082 14.3452 228.571 15.9135C229.057 17.4802 227.661 19.1152 224.866 22.3835L224.142 23.2285C223.349 24.1568 222.951 24.6218 222.772 25.1952C222.594 25.7702 222.654 26.3902 222.774 27.6285L222.884 28.7568C223.306 33.1185 223.517 35.2985 222.241 36.2668C220.964 37.2352 219.044 36.3518 215.207 34.5852L214.212 34.1285C213.122 33.6252 212.577 33.3752 211.999 33.3752C211.421 33.3752 210.876 33.6252 209.786 34.1285L208.792 34.5852C204.954 36.3518 203.034 37.2352 201.759 36.2685C200.481 35.2985 200.692 33.1185 201.114 28.7568L201.224 27.6302C201.344 26.3902 201.404 25.7702 201.224 25.1968C201.047 24.6218 200.649 24.1568 199.856 23.2302L199.132 22.3835C196.337 19.1168 194.941 17.4818 195.427 15.9135C195.914 14.3452 197.966 13.8802 202.066 12.9535L203.126 12.7135C204.291 12.4502 204.872 12.3185 205.341 11.9635C205.809 11.6085 206.107 11.0702 206.707 9.9935L207.254 9.0135Z" fill="#626262"/>
<path d="M207.257 9.0075L207.254 9.0135L206.707 9.9935L206.696 10.0132C206.104 11.0767 205.806 11.6107 205.341 11.9635C204.872 12.3185 204.291 12.4502 203.126 12.7135L202.066 12.9535C197.966 13.8802 195.914 14.3452 195.427 15.9135C194.941 17.4818 196.337 19.1168 199.132 22.3835L199.856 23.2302L199.858 23.2323C200.65 24.1575 201.048 24.6223 201.224 25.1968C201.404 25.7702 201.344 26.3902 201.224 27.6302L201.114 28.7568L201.113 28.7655C200.692 33.1214 200.482 35.2991 201.759 36.2685C203.034 37.2352 204.954 36.3518 208.792 34.5852L209.786 34.1285C210.876 33.6252 211.421 33.3752 211.999 33.3752C212.577 33.3752 213.122 33.6252 214.212 34.1285L215.207 34.5852C216.756 35.2982 217.992 35.8674 219 36.2289V12.1755C218.876 12.1136 218.764 12.0444 218.657 11.9635C218.191 11.6085 217.891 11.0702 217.291 9.99353L217.291 9.9935L216.744 9.0135L216.741 9.00752C214.631 5.22484 213.577 3.3335 211.999 3.3335C210.422 3.3335 209.367 5.22483 207.257 9.0075Z" fill="white"/>
</svg>
